<?xml version="1.0" encoding="utf-8"?>
<!-- Generator: Adobe Illustrator 27.3.1, SVG Export Plug-In . SVG Version: 6.00 Build 0)  -->
<svg version="1.1" id="Camada_1" xmlns="http://www.w3.org/2000/svg" xmlns:xlink="http://www.w3.org/1999/xlink" x="0px" y="0px"
	 viewBox="0 0 595.3 498.8" style="enable-background:new 0 0 595.3 498.8;" xml:space="preserve">
<style type="text/css">
	.st0{fill:#0B91F4;}
</style>
<path class="st0" d="M593.2,157.1c-0.2-0.8-0.5-1.7-0.7-2.5c-1.2-4.7-3.8-8.4-7.7-11.2c-0.2-0.2-0.5-0.2-0.8-0.3
	c-0.1-0.1-0.2-0.2-0.4-0.3c-2.6-1.7-5.4-2.8-8.4-3.1c-2.3-0.2-4.7-0.1-7-0.1c-27.1,0-54.2,0-81.3-0.1c-2.5,0-5-0.1-7.5-0.1
	c-1.4,0-2.7-0.3-3.8-1c-0.3-0.2-0.5-0.4-0.8-0.6c-2.5-2-3.5-4.7-3.4-7.9c0.2-8.8,0.4-17.6,0.5-26.3c0-0.3,0.1-0.7,0.1-1.1
	c0.2-10.7,0.4-21.5,0.7-32.2c0.1-5.3,0.2-10.6,0.3-15.8c0.1-7.9,0.2-15.8,0.4-23.8c0-2.8,0.1-5.5,0.3-8.3c0.4-5.2-0.9-10-4.1-14.2
	c-1-1.3-2.2-2.4-3.3-3.6c-0.3-0.2-0.7-0.5-1-0.7l0,0c-0.4-0.2-0.7-0.5-1-0.7c-0.2-0.1-0.5-0.3-0.7-0.4c-0.4-0.2-0.7-0.4-1.1-0.6
	c-1.8-0.6-3.6-1.5-5.5-1.7c-2.5-0.3-5.1-0.2-7.7-0.3c-0.9,0.3-1.8,0.5-2.7,0.8c-1.4,0.7-2.9,1.3-4.2,2.1c-2.6,1.5-4.6,3.7-6.6,5.9
	c-3.7,4-7.5,7.8-11.3,11.8c-0.5,0.5-1,1-1.4,1.5c-0.2,0.2-0.5,0.5-0.7,0.7c-3.1,3.2-6.1,6.4-9.2,9.6c-1.8,1.9-3.7,3.7-5.6,5.5
	c-0.1,0.1-0.2,0.2-0.3,0.3c-0.1,0.1-0.3,0.2-0.4,0.4c-0.5,0.6-1.1,1.2-1.7,1.9c-1.9,2-3.8,3.9-5.7,5.9c-0.9,1-1.8,2-2.8,2.9
	c-0.4,0.5-0.8,1-1.2,1.5c-6,6.3-12.1,12.6-18.2,18.9c-2.1,2.1-4.2,4.2-6.3,6.4c-0.6,0.6-1.2,1.2-1.8,1.8c-2.5,2.6-4.9,5.1-7.4,7.7
	c-0.2,0.2-0.5,0.5-0.7,0.8c-0.7,0.8-1.3,1.6-2,2.4c-4.6,4.8-9.3,9.6-13.9,14.4c-0.2,0.3-0.4,0.5-0.6,0.8c-2.4,2.4-4.8,4.9-7.1,7.3
	c-0.2,0.2-0.4,0.5-0.6,0.7c-2.5,2.6-5,5.1-7.5,7.7c-0.1,0.8-0.6,1.3-1.4,1.4c-2.2,2.3-4.5,4.7-6.7,7c-0.2,0.9-0.8,1.5-1.7,1.8
	c-0.3,0.3-0.6,0.7-1,1c-4.7,4.9-9.5,9.7-14.2,14.6c-2.3,2.4-5.1,3.2-8.4,2.7c-0.3-0.1-0.6-0.3-1-0.4c-0.8-0.5-1.7-0.9-2.3-1.5
	c-3.5-3.5-7-7-10.5-10.6c-7.6-7.9-15.2-15.8-22.9-23.8c-0.8-0.2-1.3-0.6-1.3-1.5c-4.9-5-9.7-10.1-14.5-15.1c-0.6-0.1-1-0.4-1-1.1
	c-3.9-4.1-7.9-8.2-11.8-12.2c-3.3-3.4-6.6-6.8-9.9-10.2c-0.6-0.6-1.1-1.3-1.7-2c-0.5-0.5-1-1-1.4-1.5c-0.4-0.4-0.9-0.8-1.3-1.2
	c-3.1-3.2-6.2-6.4-9.3-9.6c-8.4-8.8-16.8-17.5-25.3-26.2c-0.2-0.2-0.4-0.5-0.6-0.8c-2.5-2.6-4.9-5.2-7.5-7.7
	c-6.4-6.4-12.2-13.4-19-19.4c-0.5-0.3-1-0.7-1.6-1c-0.9-0.4-1.8-0.8-2.7-1.2c-0.6-0.2-1.2-0.4-1.8-0.6c-0.2-0.1-0.5-0.1-0.7-0.2
	c-0.4-0.1-0.9-0.2-1.3-0.4c-2.8,0-5.7-0.4-8.5,0.4c-0.3,0.2-0.6,0.3-0.9,0.5c-0.3,0-0.7,0-1,0c-0.4,0.2-0.9,0.4-1.3,0.5
	c-0.3,0.1-0.6,0.2-0.9,0.4c-0.2,0.1-0.4,0.2-0.6,0.3c-0.3,0.2-0.6,0.3-0.8,0.5c-3.2,1.8-5.7,4.4-7.7,7.5c-0.1,0.1-0.2,0.3-0.3,0.4
	c-0.5,1.2-0.9,2.3-1.4,3.5c0.3,0.8,0,1.4-0.7,1.8c0,2.7-0.2,5.5-0.1,8.2c0.1,5.8,0.3,11.6,0.4,17.4c0.2,7.1,0.3,14.3,0.4,21.4
	c0.1,3.1,0.1,6.2,0.1,9.3c0,1.2,0.1,2.3,0.1,3.5c0,0.4,0.1,0.8,0.1,1.2c0.1,4.3,0.2,8.7,0.3,13c0.2,8.9,0.3,17.8,0.4,26.7
	c0,1.5,0,3,0,4.6c0.1,0.1,0.1,0.2,0.1,0.3c0,3.5,0.2,7,0.1,10.5c-0.1,1.6-0.7,3.2-2.1,4.3c-0.1,0.1-0.2,0.2-0.3,0.4l0,0
	c-0.2,0.2-0.5,0.5-0.7,0.7c-1,1.2-2.3,1.6-3.7,2c-1,0.6-2,0.6-3,0.1c-1.9,0-3.7,0.1-5.6,0.1c-27.2,0-54.4,0-81.6,0.1
	c-2.8,0-5.5,0.1-8.2,0.2c-0.4,0.1-0.7,0.1-1,0.2c-0.2,0.1-0.5,0.1-0.7,0.1c-0.6,0.2-1.2,0.5-1.8,0.7c-1.2,0.5-2.3,1-3.5,1.5
	c-0.2,0.2-0.5,0.4-0.8,0.6c-1.2,1-2.4,1.9-3.5,2.9c-0.1,0.1-0.2,0.3-0.3,0.4c-1.2,1.9-2.4,3.7-3.5,5.6c-0.3,1.3-0.6,2.7-0.9,4
	c0,0.1-0.3,0.2-0.4,0.3c0,0.3-0.1,0.7-0.1,1c0.5,0.5,0.4,0.8-0.2,1.1c0,1.3,0,2.5,0,3.8c0.4,0.2,0.7,0.4,0.2,0.8
	c0.2,1.1,0.3,2.1,0.4,3.1c0.4,0.1,0.8,0.3,0.2,0.7c0.1,0.6,0.3,1.1,0.4,1.7c0.2,0.3,0.3,0.5,0.5,0.8c0.2,0.4,0.3,0.7,0.5,1
	c0.1,0.1,0.2,0.3,0.3,0.4c1.5,2.2,3.2,4.1,5.1,5.9c2,1.9,3.9,3.8,5.8,5.7c0.2,0.2,0.5,0.5,0.7,0.7c3.5,3.5,7.1,7,10.7,10.5
	c13.5,13.4,27,26.8,40.5,40.2c1.2,0.5,2,1.3,2.5,2.5c0.5,0.5,0.9,0.9,1.4,1.4c0.9,0.2,1.5,0.8,1.8,1.8c4,4,8.1,8,12.1,12
	c8.5,8.5,17.1,17,25.6,25.5c4.7,4.7,9.4,9.5,14.1,14.2c0.2,0.3,0.4,0.5,0.6,0.8c0.2,0.4,0.4,0.8,0.6,1.2c0.4,0.2,0.6,0.4,0.2,0.8
	c0,0.3-0.1,0.6,0,0.9c0.7,2-0.1,3.8-1,5.5c-0.2,0.2-0.3,0.4-0.5,0.7c-0.4,0.7-0.7,1.4-1.1,2.1c-0.2,0.3-0.4,0.6-0.6,0.9
	c-0.6,1-1.2,2-1.9,3c-0.1,0.1-0.2,0.3-0.3,0.4c-0.6,1-1.3,2.1-1.9,3.1c-0.2,0.3-0.4,0.6-0.5,0.9c0,0.1,0,0.2-0.1,0.2
	c-0.2,0.3-0.4,0.6-0.6,0.9c0,0.1,0,0.2-0.1,0.2c-0.3,0.5-0.7,1-1,1.4c-1,1.6-1.9,3.3-2.9,4.9c-0.2,0.2-0.4,0.5-0.6,0.8
	c-0.5,0.9-1,1.8-1.5,2.7c-0.1,0.1-0.2,0.3-0.3,0.4c-0.4,0.6-0.8,1.2-1.2,1.8c-0.2,0.3-0.4,0.7-0.6,1c-0.4,0.6-0.7,1.2-1.1,1.8
	c-0.2,0.2-0.4,0.5-0.6,0.8c-0.8,1.3-1.5,2.5-2.2,3.8c-0.2,0.3-0.4,0.6-0.5,0.9c0,0.1,0,0.2-0.1,0.2c-0.2,0.3-0.4,0.6-0.6,0.9
	s-0.3,0.6-0.5,0.8c-0.2,0.3-0.4,0.6-0.6,0.9s-0.3,0.6-0.5,0.9s-0.4,0.6-0.5,0.8c0,0.1,0,0.2-0.1,0.2c-0.2,0.3-0.4,0.6-0.6,0.9
	s-0.3,0.6-0.5,0.9s-0.4,0.5-0.6,0.8c0,0.1,0,0.2-0.1,0.2c-0.2,0.2-0.4,0.5-0.6,0.7c-0.8,1.3-1.5,2.6-2.2,3.9
	c-0.2,0.2-0.4,0.5-0.6,0.7c0,0.1,0,0.2-0.1,0.3c-0.1,0.1-0.2,0.2-0.3,0.4c-0.1,0.1-0.1,0.2-0.2,0.3c-0.2,0.3-0.3,0.5-0.5,0.8
	c-0.6,1-1.3,2-1.9,3.1c-0.2,0.3-0.4,0.7-0.6,1l0,0c-0.2,0.2-0.4,0.5-0.7,0.8c-0.2,0.3-0.3,0.7-0.5,1c-0.2,0.2-0.4,0.5-0.6,0.7
	c-1,1.6-1.9,3.3-2.9,4.9c-0.2,0.3-0.4,0.6-0.6,0.9c0,0.1,0,0.1-0.1,0.2c-0.3,0.5-0.6,1-1,1.6c-0.2,0.3-0.3,0.6-0.5,0.9
	s-0.4,0.5-0.5,0.8c0,0.1,0,0.2-0.1,0.2c-0.2,0.2-0.4,0.5-0.6,0.7c0,0.1,0,0.2-0.1,0.3c-0.1,0.1-0.2,0.3-0.3,0.4
	c-1.2,2-2.4,3.9-3.7,5.9c-0.2,0.3-0.4,0.6-0.6,0.8c-0.3,0.4-0.5,0.9-0.8,1.3c-0.1,0.1-0.2,0.3-0.3,0.4c-0.3,0.5-0.5,0.9-0.8,1.4
	c-0.2,0.4-0.4,0.7-0.7,1c-0.1,0.2-0.3,0.5-0.4,0.7c-0.2,0.3-0.4,0.6-0.6,0.9c0,0.1,0,0.2-0.1,0.2c-0.2,0.3-0.4,0.6-0.6,0.9
	s-0.3,0.6-0.5,0.9c-0.2,0.2-0.4,0.5-0.6,0.7c-0.6,1-1.2,2.1-1.8,3.1c-0.2,0.2-0.4,0.5-0.7,0.8c-0.4,0.7-0.8,1.4-1.1,2.1
	c-0.1,0.1-0.2,0.3-0.3,0.4c0,0.1-0.1,0.2-0.2,0.3c-0.2,0.3-0.3,0.5-0.5,0.8c-0.6,1-1.2,2-1.9,3.1c-0.2,0.4-0.4,0.7-0.7,1l0,0
	c-0.2,0.3-0.4,0.5-0.7,0.8c-0.2,0.5-0.4,0.9-0.6,1.4c-0.7,1.2-1.6,2.2-2,3.5c-0.4,0.9-0.8,1.8-1.1,2.7c-0.1,0.6-0.1,1.1-0.2,1.7
	c-0.5,3.5-0.5,6.9,0.6,10.2c0.1,0.3,0.2,0.6,0.3,0.9c0.2,0.6,0.4,1.1,0.6,1.7c0.1,0.1,0.2,0.3,0.3,0.4c2.2,4.3,5.6,7.5,9.9,9.6
	c0.5,0.2,0.9,0.4,1.4,0.6c0.2,0.1,0.5,0.1,0.7,0.2c0.8,0.1,1.6,0,2.2,0.8c1.3,0.1,2.6,0.1,3.8,0.2c1.8-0.2,3.5-0.3,5.3-0.5
	c0.7-0.2,1.4-0.4,2.1-0.6c0.1,0,0.2-0.1,0.3-0.1c0.7-0.3,1.4-0.6,2.2-0.9c1.4-0.5,2.8-1,4.2-1.5c0.5-0.2,1-0.4,1.5-0.6
	c0.6-0.1,1.2-0.3,1.7-0.4c0.4-0.2,0.7-0.3,1.1-0.5c0.6-0.2,1.1-0.4,1.7-0.6c0.1-0.1,0.3-0.2,0.4-0.3c1.7-0.6,3.5-1.3,5.2-1.9
	c1.4-0.5,2.8-0.9,4.2-1.4c0.7-0.3,1.5-0.6,2.2-0.9c1.8-0.6,3.5-1.3,5.3-1.9c0.2-0.1,0.5-0.2,0.7-0.3c0.6-0.2,1.2-0.3,1.9-0.5
	c0.7-0.3,1.3-0.6,2-0.9c1.2-0.4,2.3-0.8,3.5-1.2c0.1-0.1,0.3-0.2,0.4-0.3c1.3-0.4,2.6-0.7,3.9-1.1c1.1-0.4,2.1-0.9,3.2-1.3
	c0.2,0,0.4-0.1,0.6-0.2c0.1-0.1,0.3-0.2,0.4-0.3c2.1-0.8,4.2-1.5,6.2-2.3c0.6-0.2,1.3-0.5,2-0.7c0.5-0.1,0.9-0.2,1.4-0.3
	c0.7-0.3,1.4-0.6,2.1-0.9c0.4-0.1,0.9-0.3,1.3-0.5c0.1-0.1,0.3-0.2,0.4-0.3c0.1,0,0.2,0,0.4,0s0.5-0.1,0.7-0.2s0.4-0.2,0.6-0.2
	c0.1-0.1,0.3-0.2,0.4-0.3c0.2,0,0.4,0,0.6-0.1c0.1-0.1,0.3-0.2,0.4-0.3c1.4-0.4,2.9-0.9,4.3-1.3c0.3-0.1,0.6-0.3,1-0.4
	c0.8-0.2,1.6-0.4,2.3-0.6c0.8-0.5,1.6-0.5,2.4,0c1.2,0.3,2.4,0.5,3.4,1.4c0.9,0.2,1.4,0.8,1.8,1.6l0,0c0.1,0.1,0.2,0.2,0.3,0.4
	c1,1.6,1.8,3.2,1.6,5.1c-0.1,1.1-0.1,2.2-0.2,3.3c-0.2,2.4-0.4,4.9-0.6,7.3c0,0.5-0.1,1-0.1,1.5c0,0.7,0,1.4-0.1,2.1
	c-0.3,4.2-0.6,8.5-0.9,12.7c0.4,0.5,0.4,1-0.2,1.5c-0.1,1.4-0.1,2.8-0.2,4.1c0.5,0.4,0.2,0.6-0.2,0.8c-0.2,3.3-0.4,6.5-0.7,9.8
	c-0.4,6-0.9,12-1.3,18c0,0.5,0,0.9,0,1.4c-0.1,0.6-0.2,1.2-0.3,1.8c0,0.1,0,0.2-0.1,0.4c0,0.6,0.1,1.3,0,1.9c0,1.2-0.1,2.4-0.2,3.6
	c0,0.3,0,0.5,0.1,0.8c0.4,2.3,0.5,4.7,1.5,6.9c0.5,1,0.9,1.9,1.4,2.9c0.2,0.3,0.4,0.5,0.7,0.8c1.3,1.4,2.6,2.8,3.9,4.2
	c0.2,0.2,0.5,0.5,0.7,0.7c0.5,0.3,0.9,0.5,1.4,0.8c0.1,0.1,0.2,0.2,0.4,0.3c2.2,1.2,4.5,2,6.9,2.5c0.3,0,0.5,0,0.8,0.1
	c0.5,0.1,0.9,0.2,1.4,0.3c1.1,0,2.3-0.1,3.4-0.1c0.6-0.6,1.2-0.5,1.9-0.2c1.1-0.3,2.2-0.5,3.3-0.8c0.3-0.1,0.6-0.3,1-0.4
	c0.9-0.4,1.8-0.9,2.6-1.3c0.3-0.2,0.6-0.4,0.9-0.6l0,0c0.3-0.2,0.7-0.5,1-0.7s0.5-0.5,0.8-0.7s0.6-0.5,1-0.8c0.3-0.2,0.6-0.5,1-0.7
	c0.5-0.5,1-1,1.5-1.4c1-1.2,2-2.4,3-3.6c3.9-4.3,7.8-8.6,11.8-12.9c0.2-0.3,0.5-0.5,0.7-0.8c1.6-1.9,3.3-3.8,4.9-5.7
	c5-5.6,10.1-11.2,15.2-16.8c0.6-0.6,1.1-1.2,1.7-1.8c0.2-0.3,0.5-0.5,0.7-0.8c2-2.3,4-4.5,6-6.8c0.9-1,1.7-1.9,2.6-2.9
	c0.2-0.2,0.5-0.5,0.7-0.7c3.3-3.7,6.6-7.4,10-11.1c1.8-2,3.7-3.9,5.5-5.9c0-0.5,0.2-0.8,0.7-0.9c0.7-0.8,1.4-1.5,2.1-2.2
	c0.4-0.4,0.7-0.9,1.1-1.3c1.8-2,3.5-4,5.3-6c1-1.2,2.1-2.4,3.1-3.5c0.2-0.2,0.5-0.5,0.7-0.7c1.4-1.6,2.8-3.1,4.2-4.7
	c0.4-0.5,0.9-0.9,1.4-1.3c0.4-0.4,0.7-0.8,1.1-1.1c2.1-2.3,4-4.9,6.3-6.9c2.6-2.3,6.1-2.5,9.5-0.4c0.1,0.1,0.2,0.2,0.4,0.3
	c0.7,0.8,1.4,1.5,2.1,2.2c0.1,0.1,0.2,0.2,0.3,0.3c2.1,2.3,4.3,4.6,6.4,6.9c0.9,1,1.7,1.9,2.5,2.9c0.1,0.1,0.2,0.2,0.3,0.4h0.1
	c0.1,0.1,0.2,0.2,0.3,0.3c4.3,4.8,8.7,9.5,13,14.3c7.1,7.9,14.2,15.9,21.3,23.8c3.2,3.5,6.4,7,9.5,10.5c0.4,0.4,0.8,0.7,1.1,1.1
	c0.4,0,0.9,0,0.5,0.6c2.3,2.6,4.5,5.1,6.8,7.7c0.3,0.4,0.6,0.7,0.9,1.1c0.1,0,0.2,0,0.3,0c0.7,0,0.8,0.5,0.7,1
	c5.3,5.9,10.6,11.7,15.9,17.6c2.3,2.5,4.5,5.1,6.7,7.6c0.4,0.5,0.9,0.9,1.4,1.3c0.5,0,1,0.1,1,0.8c0.7,0.6,1.4,1.2,2.1,1.7
	c0.5,0,1,0,1.1,0.6c0.5,0,1,0.1,1,0.8c0.7,0.3,1.4,0.7,2.1,1c1.3,0.3,2.7,0.5,4,0.9c0.1,0,0.2,0.3,0.2,0.4c1.8,0.1,3.5,0.3,5.3,0.4
	c2.7-0.3,5.2-1.1,7.7-2.1c0.1-0.1,0.2-0.2,0.4-0.3c0.1,0,0.2-0.1,0.3-0.1c0.1-0.1,0.2-0.2,0.4-0.3c1.3-1,2.7-2,3.9-3
	c1-0.9,1.9-2,2.8-3c0.2-0.4,0.5-0.7,0.7-1.1c0.1-0.2,0.2-0.5,0.3-0.7c0.1-0.2,0.2-0.5,0.4-0.7c0.1-0.4,0.3-0.7,0.5-1
	c0.2-0.5,0.4-0.9,0.6-1.4c0.4-1.6,0.8-3.3,1.2-4.9c0-0.2,0-0.5,0-0.7c0-1,0.1-2,0.1-3c-0.1-1.7-0.4-3.4-0.5-5.1
	c-0.3-4-0.5-8-0.8-11.9c-0.5-7.7-1-15.3-1.5-23c0-0.2,0-0.5-0.1-0.8c-0.3-3.3-0.5-6.6-0.8-10c-0.3-4.2-0.6-8.4-0.9-12.6
	c-0.1-2.5-0.1-4.9-0.2-7.4c0.1-0.9,0.4-1.8,1.3-2.3c0.3-0.4,0.6-0.8,0.9-1.2c0-0.5,0.2-0.8,0.7-0.7c2.2-1.6,4.6-2.3,7.2-1.5
	c3.1,0.9,6.1,2,9.2,3c2.3,0.8,4.6,1.5,7,2.3c1.5,0.1,3.4,0.8,4,1.7c0.1,0.1,0.2,0.1,0.3,0.1c0.8-0.5,1.4-0.2,1.8,0.6
	c1.6,0.5,3.1,1,4.7,1.5c0.5-0.1,0.8,0,0.9,0.5c0.6,0.2,1.3,0.3,2,0.5c1.2,0.4,2.5,0.7,3.7,1.1c0.1,0,0.2,0.4,0.3,0.6
	c1.6,0.5,3.2,1,4.8,1.5c0.5,0,1.1-0.2,1.2,0.6c0.3,0,0.6,0.1,0.9,0.1c0.5-0.1,1.1-0.2,1.2,0.6c0.4,0.1,0.7,0.3,1,0.4
	c0.5-0.5,0.6-0.2,0.7,0.3c1.1,0.4,2.1,0.7,3.2,1.1c1.3-0.2,2.7,0.3,3.5,1.3c1.7,0.5,3.4,1.1,5,1.6c0.5-0.1,0.9,0,0.9,0.6
	c0.1,0,0.2,0.1,0.3,0.1c0.4-0.6,0.6-0.3,0.7,0.2c0.1,0,0.2,0.1,0.3,0.1c0.1,0.1,0.2,0.2,0.4,0.3c0.7,0.2,1.3,0.4,2,0.6
	c1.4,0.4,2.8,0.9,4.1,1.3c0.9-0.1,1.6-0.1,2,0.9c1,0.4,1.9,0.8,2.9,1.2c3.3,1.4,6.6,1.7,10.1,1.3c0.5-0.8,0.7-0.9,1.8-0.3
	c0.1,0,0.2,0,0.4,0c0.1-0.8,0.7-0.7,1.3-0.6c2.5-0.3,4.5-1.7,6.5-3.1c1.5-1.1,3-2.3,3.8-4c0.1-0.1,0.2-0.2,0.3-0.4
	c0.2-0.2,0.5-0.5,0.7-0.7c0.4-0.7,0.8-1.4,1.1-2.1c0.5-1.1,0.9-2.1,1.3-3.2c0.5-2,0.8-4.1,0.8-6.2c0-2.2-0.5-4.4-0.9-6.5
	c-0.3-0.6-0.6-1.1-0.9-1.7c-0.6-1.2-1.2-2.3-1.8-3.5c-0.2-0.4-0.5-0.7-0.7-1.1s-0.5-0.7-0.7-1.1s-0.5-0.7-0.7-1
	c-0.3-0.6-0.7-1.1-1-1.7c-0.2-0.4-0.4-0.7-0.6-1.1c-0.2-0.3-0.3-0.6-0.5-0.9s-0.4-0.6-0.7-0.9c-0.8-1.3-1.6-2.6-2.5-3.9
	c-0.1-0.1-0.2-0.2-0.3-0.3c-0.3-0.5-0.5-1.1-0.8-1.7c-0.2-0.3-0.4-0.5-0.6-0.8c-0.4-0.6-0.7-1.2-1.1-1.8c-0.2-0.4-0.4-0.7-0.7-1
	c-0.4-0.6-0.7-1.2-1.1-1.8c-0.1-0.1-0.2-0.2-0.3-0.4c0-0.1-0.1-0.2-0.1-0.3c-0.2-0.4-0.5-0.7-0.8-1.1c-0.6-0.9-1.1-1.9-1.7-2.8
	c-0.2-0.4-0.5-0.7-0.7-1c-0.3-0.6-0.7-1.2-1-1.8c-0.1-0.1-0.2-0.2-0.3-0.4c-0.3-0.5-0.5-0.9-0.8-1.4c-0.2-0.4-0.5-0.7-0.7-1.1
	c-0.9-1.5-1.9-3-2.8-4.5c-0.2-0.4-0.4-0.7-0.7-1.1c-0.4-0.6-0.7-1.2-1.1-1.8c-0.2-0.4-0.5-0.7-0.8-1c-0.5-0.8-0.9-1.6-1.4-2.5
	c-0.2-0.4-0.5-0.7-0.7-1.1c-0.8-1.3-1.6-2.6-2.5-3.9c-0.1-0.1-0.2-0.2-0.3-0.4c-1.6-2.6-3.1-5.3-4.7-7.9c-0.2-0.3-0.4-0.6-0.6-0.9
	l0,0c-0.2-0.4-0.4-0.7-0.6-1.1c-1.9-3.1-3.8-6.2-5.8-9.3c-0.2-0.3-0.4-0.6-0.7-0.9c-0.2-0.4-0.5-0.7-0.7-1.1c-0.5-0.2-0.8-0.5-0.6-1
	c-0.7-1.2-1.5-2.3-2.2-3.5c-0.4-0.6-0.7-1.2-1.1-1.8c-0.8-1.4-1.7-2.7-2.5-4.1c-0.8-0.2-0.9-0.9-1-1.5l0,0c-0.2-0.4-0.5-0.7-0.7-1.1
	c-0.1-0.1-0.2-0.2-0.4-0.4c-0.1-0.1-0.2-0.3-0.3-0.4c-0.1-0.3-0.2-0.7-0.3-1c-1-1.5-1.9-3-2.9-4.5c-0.2-0.4-0.5-0.7-0.7-1.1
	c-1-1.6-1.9-3.2-2.8-4.8c-0.2-0.3-0.5-0.6-0.7-0.9c-0.1-0.2-0.2-0.5-0.3-0.7c-0.7-0.4-1-1-0.9-1.8c-0.9-2.6-0.5-5.1,1-7.4
	c0.1-0.1,0.2-0.2,0.3-0.3c1.1-1.2,2.2-2.5,3.4-3.6c4.7-4.7,9.5-9.4,14.2-14.1c6.2-6.1,12.3-12.3,18.4-18.4
	c10.4-10.3,20.7-20.6,31.1-30.8c15.3-15.2,30.7-30.5,46-45.7c2.5-2.5,5.2-4.8,7-7.9c0.3-0.7,0.7-1.4,1-2.1c0.1-0.4,0.3-0.7,0.4-1.1
	c0.2-0.3,0.3-0.6,0.5-1c0.1-0.4,0.2-0.8,0.3-1.1c0.1-0.2,0.1-0.5,0.2-0.7c0.1-0.8,0.2-1.6,0.2-2.4
	C593.4,160.4,593.3,158.8,593.2,157.1z M123.9,260.2c-1.6-7.3-1.6-14.7,0.5-21.9c1.8-6.2,5.3-11.1,10.8-14.4
	c4.9-2.9,10.2-4.4,15.9-5.2c5.4-0.8,10.8-0.8,16.1-0.6c3.6,0.2,7.1,0.7,10.6,1.3c4.6,0.9,9.1,2.5,13,5.2c3.8,2.7,6.7,6,8.4,10.3
	c1.4,3.5,2.4,7.2,2.5,11.1c-0.2,0.1-0.4,0.2-0.6,0.2c-6.8,0-13.6,0-20.4-0.1c-0.1-0.1-0.2-0.2-0.4-0.3c-0.1-0.1-0.2-0.3-0.2-0.5
	c-0.9-4.6-3.9-7.2-8.2-8.5c-3.8-1.1-7.7-1.3-11.7-1.1c-2.6,0.1-5.1,0.5-7.6,1.2c-4.9,1.5-7.7,4.8-8.4,9.8c-0.4,2.8-0.3,5.6,0.3,8.4
	c0.9,3.8,3.3,6.4,6.9,7.9c2.4,1,4.8,1.4,7.4,1.6c3.9,0.3,7.9,0.2,11.7-0.7c5-1.2,8.6-3.9,9.7-9.2c0-0.2,0.1-0.3,0.3-0.5
	c7.1,0,14.1,0,21.3,0c-0.2,3.7-0.8,7.1-2.1,10.5c-2.8,7.2-8.1,11.8-15.2,14.5c-4.8,1.9-9.8,2.8-14.9,3.2c-4.8,0.4-9.6,0.4-14.4,0
	c-5-0.4-9.9-1.3-14.6-3.1C131.6,276,126,269.6,123.9,260.2z M186.6,359.6c-1.7-4-3.4-7.9-5.1-11.8c-10.1,0-20,0-30.2,0
	c-1.7,3.9-3.4,7.8-5.2,11.8c-7.7,0-15.3,0-23.1,0c0.2-0.5,0.3-0.9,0.4-1.3c8.9-20,17.9-40,26.8-60.1c0.5-1.2,1.1-1.6,2.5-1.6
	c9.1,0.1,18.2,0,27.3,0c0.5,0,1.1,0,1.7,0c9.3,21,18.7,41.9,28.1,63C201.9,359.6,194.3,359.6,186.6,359.6z M288,345.3
	c-1.5,5.8-5.5,9.4-10.9,11.6c-3.5,1.5-7.3,2.2-11.1,2.8c-9.5,1.3-19,1.2-28.5,0.6c-5.6-0.3-11.1-1.1-16.4-3.1
	c-2.5-0.9-4.8-2.2-6.8-4c-3.4-2.9-5.1-6.6-5.8-10.9c-0.2-1.4-0.3-2.9-0.5-4.2c1.4-0.4,18.6-0.6,21.2-0.2c0.3,3.5,3,4.7,5.9,5.2
	c3.1,0.6,6.2,1,9.2,1c5.4,0.1,10.9-0.1,16.4-0.3c1.6-0.1,3.2-0.5,4.8-1c1.8-0.6,2.4-2.2,1.9-4c-0.3-0.9-0.8-1.5-1.6-1.7
	c-1.2-0.4-2.4-0.8-3.6-0.9c-2.9-0.3-5.8-0.6-8.8-0.7c-6.8-0.3-13.6-0.6-20.4-1.4c-4.7-0.6-9.3-1.4-13.6-3.4c-1.9-0.9-3.7-2-5.4-3.3
	c-2.8-2.3-4.2-5.5-4.5-9.1c-0.2-2.2-0.3-4.5,0.1-6.7c0.9-5.4,4.4-8.8,9.1-11.1c3.7-1.9,7.7-2.9,11.8-3.5c9-1.4,18-1.5,27-0.8
	c4.2,0.4,8.5,0.9,12.6,2.2c3.2,1,6.2,2.4,9,4.4c3.8,2.8,6.9,7.7,6.7,14.8c-7,0-13.9,0-20.9,0c-0.3-2.5-2-3.7-4.2-4.2
	c-1.5-0.4-3.1-0.8-4.6-0.9c-6.6-0.5-13.1-0.6-19.7,0c-1.3,0.1-2.7,0.4-3.9,0.8c-1.5,0.5-2.1,1.6-2,3s0.6,2.2,2.2,2.5
	c2.4,0.5,4.9,0.8,7.3,1c6.9,0.5,13.8,0.7,20.7,1.2c2.3,0.1,4.5,0.8,6.8,0.9c2.9,0.1,5.6,0.7,8.3,1.6c2.1,0.7,4.2,1.6,6.1,2.6
	c3.7,2.1,5.8,5.4,6.5,9.6C288.9,338.9,288.8,342.1,288,345.3z M291.1,281.7c-0.4,0-0.7,0.1-1.1,0.1c-6.3,0-12.6,0-18.8,0
	c-0.2,0-0.5,0-0.7-0.1c-0.1-0.1-0.2-0.2-0.3-0.3c0-3.6-0.1-7.3-0.1-10.9c0-3.1,0-6.2,0-9.3c0-0.6,0-1.1,0-1.8c-13.9,0-27.6,0-41.5,0
	c0,0.6-0.1,1.2-0.1,1.8c0,6.1,0,12.2,0,18.3c0,0.6-0.1,1.3-0.1,1.9c-0.1,0.1-0.2,0.2-0.3,0.3c-3.2,0-6.4,0.1-9.7,0.1
	c-3.1,0-6.1,0-9.2,0c-0.6,0-1.1,0-1.8,0c0-21,0-41.9,0-62.8c1.2-0.4,18.4-0.4,21-0.1c0,7.4,0,14.8,0,22.3c13.9,0,27.6,0,41.5,0
	c0-7.4,0-14.9,0-22.4c7.1,0,14,0,21,0C291.1,239.8,291.1,260.7,291.1,281.7z M302.6,217.1c6.5,0,13,0,19.6,0c-2,9.6-4,19.1-6.1,28.7
	c-5.7,0-11.3,0-17.1,0C300.3,236.2,301.5,226.7,302.6,217.1z M343.9,326.7c1.3,1.2,2.6,2.5,4,3.6c1,0.9,2.2,1.8,3.2,2.7
	c3.4,3.1,6.7,6.2,10.1,9.3c0.1,0,0.2,0.1,0.2,0.2c1.2,1.2,2.4,2.4,3.7,3.5c0.8,0.7,1.7,1.3,2.4,2c2.2,2.1,4.4,4.3,6.6,6.4
	c1.7,1.6,3.5,3.1,5.2,4.6c0.1,0.2,0.2,0.3,0.3,0.5c-0.2,0-0.5,0-0.8,0c-0.6,0-1.2,0.1-1.8,0.1c-8.1,0-16.3,0-24.5,0
	c-1.2,0-2.1-0.3-2.9-1.1c-2-2-4.2-3.9-6.3-5.9c-1.9-1.8-3.6-3.8-5.5-5.6c-1.2-1.2-2.6-2.2-3.8-3.4c-1.9-1.9-3.8-3.8-5.7-5.8
	c-0.3,0.2-0.7,0.4-1.1,0.7c-3.6,2.7-7.1,5.5-10.7,8.2c-0.9,0.6-1.1,1.3-1.1,2.4c0,3.4,0,6.8,0,10.2c-0.3,0.1-0.5,0.2-0.7,0.2
	c-6.7,0-13.4,0-20,0c-0.1-0.1-0.2-0.2-0.3-0.3c0-0.6-0.1-1.3-0.1-1.9c0-19.5,0-39.1,0-58.6c0-0.6,0-1.3,0-2c7,0,14,0,21.1,0
	c0,0.6,0.1,1.2,0.1,1.8c0,7.4,0,14.8,0,22.2c0,0.6,0,1.3,0.1,1.9c0.2,0.1,0.5,0.2,0.7,0.3c0.5-0.3,1-0.5,1.5-0.9
	c10.1-8.1,20.2-16.1,30.3-24.3c1-0.8,2-1.2,3.3-1.2c8.5,0.1,17,0,25.5,0c0.6,0,1.2,0,1.8,0c0.3,0,0.6,0,1.2-0.1
	c-0.4,0.4-0.6,0.6-0.8,0.8c-4.4,3.5-8.7,7-13,10.4c-7.1,5.6-14.2,11.2-21.2,16.8c-0.3,0.2-0.7,0.5-1,0.8
	C343.3,325.9,343.5,326.3,343.9,326.7z M470.9,359.4c-1.4,0.4-20.4,0.5-23.1,0.2c-1.7-3.8-3.4-7.7-5.2-11.8c-0.4,0-0.9-0.1-1.4-0.1
	c-9,0-18.1,0-27.1,0c-1.1,0-1.6,0.2-2.1,1.5c-1.4,3.5-3.1,6.9-4.7,10.4c-7.7,0-15.3,0-23.2,0c9.4-21.1,18.8-42,28.1-62.9
	c10.3,0,20.5,0,30.8,0C452.3,317.6,461.6,338.5,470.9,359.4z"/>
<path class="st0" d="M418.9,332.7c5.8,0,11.6,0,17.5,0c-0.8-3-8.2-19.7-9-20.5C424.6,317.8,418.9,331.4,418.9,332.7z"/>
<path class="st0" d="M166.2,312.1c-2.9,6.8-5.9,13.6-8.8,20.4c2,0.4,16.5,0.3,18-0.1c-2.9-6.8-5.9-13.6-8.8-20.3
	C166.4,312.1,166.3,312.1,166.2,312.1z"/>
</svg>
